<svg width="10" height="10" viewBox="0 0 10 10" fill="none" xmlns="http://www.w3.org/2000/svg">
<path d="M4.57829 1.84351H1.79518C1.58428 1.84351 1.38203 1.92728 1.2329 2.07641C1.08378 2.22553 1 2.42779 1 2.63868V8.20491C1 8.41581 1.08378 8.61806 1.2329 8.76719C1.38203 8.91631 1.58428 9.00009 1.79518 9.00009H7.36141C7.57231 9.00009 7.77456 8.91631 7.92369 8.76719C8.07281 8.61806 8.15659 8.41581 8.15659 8.20491V5.4218" stroke="#8399B8" stroke-linecap="round" stroke-linejoin="round"/>
<path d="M7.56042 1.24703C7.71859 1.08886 7.93311 1 8.1568 1C8.38049 1 8.59501 1.08886 8.75318 1.24703C8.91135 1.4052 9.00021 1.61972 9.00021 1.84341C9.00021 2.0671 8.91135 2.28162 8.75318 2.43979L4.97609 6.21688L3.38574 6.61447L3.78333 5.02411L7.56042 1.24703Z" stroke="#8399B8" stroke-linecap="round" stroke-linejoin="round"/>
</svg>
