<svg width="20" height="20" viewBox="0 0 20 20" fill="none" xmlns="http://www.w3.org/2000/svg">
<path d="M10.5348 15.9044L10.0011 15.5666L9.46676 15.9034L4.61691 18.9604L4.6151 18.9616C4.57184 18.989 4.54858 18.9883 4.53885 18.9876C4.52296 18.9865 4.49573 18.9795 4.46438 18.9556C4.43296 18.9317 4.40672 18.8976 4.39162 18.8581C4.37808 18.8226 4.36945 18.7729 4.38505 18.7027L5.67046 12.9315L5.79689 12.3639L5.36606 11.9733L1.07715 8.08477L1.0768 8.08446C1.00883 8.02288 0.979393 7.9302 1.01391 7.81951C1.03061 7.76598 1.05749 7.73035 1.07924 7.71146C1.09605 7.69686 1.11617 7.68544 1.15454 7.68225L1.15454 7.68227L1.16007 7.68178L6.80459 7.18042L7.41298 7.12639L7.6427 6.56045L9.85143 1.11896L9.85144 1.11896L9.85296 1.11517C9.87672 1.05594 9.90399 1.03306 9.9202 1.02244C9.94062 1.00908 9.96813 1 10 1C10.0319 1 10.0594 1.00908 10.0798 1.02244C10.096 1.03306 10.1233 1.05594 10.147 1.11518L10.1483 1.11823L12.357 6.57195L12.5865 7.13857L13.1954 7.19265L18.8399 7.694L18.8399 7.69402L18.8455 7.69448C18.8838 7.69767 18.904 7.70909 18.9208 7.72369C18.9425 7.74258 18.9694 7.7782 18.9861 7.83174C19.0206 7.94243 18.9912 8.03511 18.9232 8.09668L18.9229 8.097L14.6339 11.9855L14.2031 12.3761L14.3295 12.9438L15.6149 18.715C15.6149 18.715 15.615 18.715 15.615 18.715C15.6305 18.7852 15.6219 18.8349 15.6084 18.8703C15.5933 18.9098 15.567 18.9439 15.5356 18.9678C15.5043 18.9917 15.477 18.9987 15.4612 18.9998C15.4514 19.0005 15.4282 19.0012 15.3849 18.9738L15.3846 18.9736L10.5348 15.9044Z" stroke="#E03535" stroke-width="2"/>
</svg>
