<svg width="22" height="22" viewBox="0 0 22 22" fill="none" xmlns="http://www.w3.org/2000/svg">
<path fill-rule="evenodd" clip-rule="evenodd" d="M8.9518 0.134955C9.4445 -0.00838252 9.96494 -0.0380343 10.4716 0.048367C10.9782 0.134768 11.457 0.334829 11.8697 0.632581C12.2824 0.930333 12.6176 1.31753 12.8486 1.76327C13.0796 2.209 13.1999 2.70093 13.2 3.19978V18.8002C13.1999 19.2991 13.0796 19.791 12.8486 20.2367C12.6176 20.6825 12.2824 21.0697 11.8697 21.3674C11.457 21.6652 10.9782 21.8652 10.4716 21.9516C9.96494 22.038 9.4445 22.0084 8.9518 21.865L2.3518 19.9449C1.67211 19.7471 1.07625 19.3422 0.65261 18.7901C0.228969 18.238 0.000116368 17.5682 0 16.88V5.11997C0.000116368 4.43179 0.228969 3.76198 0.65261 3.2099C1.07625 2.65782 1.67211 2.25288 2.3518 2.05514L8.9518 0.134955ZM14.3 2.46585C14.3 2.18292 14.4159 1.91158 14.6222 1.71153C14.8285 1.51147 15.1083 1.39908 15.4 1.39908H18.7C19.5752 1.39908 20.4146 1.73625 21.0335 2.33643C21.6523 2.9366 22 3.75061 22 4.59938V5.66615C22 5.94908 21.8841 6.22042 21.6778 6.42047C21.4715 6.62053 21.1917 6.73292 20.9 6.73292C20.6083 6.73292 20.3285 6.62053 20.1222 6.42047C19.9159 6.22042 19.8 5.94908 19.8 5.66615V4.59938C19.8 4.31646 19.6841 4.04512 19.4778 3.84506C19.2715 3.64501 18.9917 3.53262 18.7 3.53262H15.4C15.1083 3.53262 14.8285 3.42022 14.6222 3.22017C14.4159 3.02011 14.3 2.74877 14.3 2.46585ZM20.9 15.2671C21.1917 15.2671 21.4715 15.3795 21.6778 15.5795C21.8841 15.7796 22 16.0509 22 16.3338V17.4006C22 18.2494 21.6523 19.0634 21.0335 19.6636C20.4146 20.2637 19.5752 20.6009 18.7 20.6009H15.4C15.1083 20.6009 14.8285 20.4885 14.6222 20.2885C14.4159 20.0884 14.3 19.8171 14.3 19.5342C14.3 19.2512 14.4159 18.9799 14.6222 18.7798C14.8285 18.5798 15.1083 18.4674 15.4 18.4674H18.7C18.9917 18.4674 19.2715 18.355 19.4778 18.1549C19.6841 17.9549 19.8 17.6835 19.8 17.4006V16.3338C19.8 16.0509 19.9159 15.7796 20.1222 15.5795C20.3285 15.3795 20.6083 15.2671 20.9 15.2671ZM7.7 9.93323C7.40826 9.93323 7.12847 10.0456 6.92218 10.2457C6.71589 10.4457 6.6 10.7171 6.6 11C6.6 11.2829 6.71589 11.5543 6.92218 11.7543C7.12847 11.9544 7.40826 12.0668 7.7 12.0668H7.7011C7.99284 12.0668 8.27263 11.9544 8.47892 11.7543C8.68521 11.5543 8.8011 11.2829 8.8011 11C8.8011 10.7171 8.68521 10.4457 8.47892 10.2457C8.27263 10.0456 7.99284 9.93323 7.7011 9.93323H7.7Z" fill="#19191D"/>
</svg>
