<svg width="26" height="26" viewBox="0 0 26 26" fill="none" xmlns="http://www.w3.org/2000/svg">
<g filter="url(#filter0_i_95_128)">
<path d="M0.625001 14.1661C0.625001 14.3902 0.714015 14.6051 0.87246 14.7635C1.03091 14.922 1.2458 15.011 1.46988 15.011C1.69396 15.011 1.90885 14.922 2.0673 14.7635C2.22575 14.6051 2.31476 14.3902 2.31476 14.1661H0.625001ZM2.59301 18.7217C2.50257 18.5218 2.33792 18.3649 2.13389 18.2843C1.92986 18.2036 1.70245 18.2054 1.49977 18.2894C1.29709 18.3734 1.13503 18.533 1.04788 18.7343C0.960726 18.9357 0.955318 19.163 1.0328 19.3683L2.59301 18.7217ZM15.9432 7.53549C16.052 7.55798 16.1641 7.55883 16.2731 7.53799C16.3822 7.51716 16.4861 7.47504 16.5789 7.41406C16.6716 7.35307 16.7515 7.27441 16.8139 7.18256C16.8763 7.09071 16.92 6.98747 16.9424 6.87874C16.9649 6.77001 16.9658 6.65791 16.9449 6.54885C16.9241 6.43979 16.882 6.3359 16.821 6.24312C16.76 6.15033 16.6814 6.07047 16.5895 6.00808C16.4977 5.9457 16.3944 5.90201 16.2857 5.87953L15.9432 7.53549ZM20.1192 9.71415C20.0967 9.6055 20.053 9.50233 19.9907 9.41055C19.9283 9.31877 19.8485 9.24017 19.7558 9.17923C19.663 9.1183 19.5592 9.07623 19.4502 9.05542C19.3412 9.03462 19.2292 9.03548 19.1205 9.05797C19.0119 9.08045 18.9087 9.12412 18.8169 9.18648C18.7251 9.24883 18.6465 9.32865 18.5856 9.42139C18.5247 9.51412 18.4826 9.61795 18.4618 9.72694C18.441 9.83593 18.4419 9.94796 18.4643 10.0566L20.1192 9.71415ZM12.1886 24.4083L12.4815 23.9149L11.026 23.0542L10.7331 23.5476L12.1886 24.4083ZM8.48238 23.9149L8.77527 24.4083L10.2296 23.5476L9.9367 23.0542L8.48238 23.9149ZM10.7343 23.5476C10.7084 23.5911 10.6713 23.6268 10.6269 23.651C10.5825 23.6751 10.5325 23.6869 10.4819 23.6851C10.4314 23.6869 10.3813 23.6751 10.3369 23.651C10.2925 23.6268 10.2554 23.5911 10.2296 23.5476L8.7764 24.4083C9.53792 25.697 11.4259 25.697 12.1886 24.4083L10.7343 23.5476ZM9.13012 7.35075H11.8337V5.66099H9.13012V7.35075ZM18.6491 14.1661V15.0673H20.3389V14.1661H18.6491ZM6.3285 20.9646C5.43631 20.9364 4.95078 20.8587 4.57453 20.7032L3.92792 22.2634C4.60044 22.5428 5.34168 22.6239 6.27443 22.6543L6.3285 20.9646ZM1.0328 19.3683C1.57587 20.679 2.61723 21.7204 3.92792 22.2634L4.57453 20.7032C4.1302 20.5191 3.72651 20.2492 3.38651 19.909C3.04651 19.5689 2.77687 19.1661 2.59301 18.7217L1.0328 19.3683ZM18.6491 15.0673C18.6491 16.1285 18.6491 16.8821 18.6085 17.4758C18.568 18.0616 18.4925 18.4277 18.3708 18.7217L19.9311 19.3683C20.153 18.8343 20.2476 18.2621 20.2938 17.5907C20.3389 16.926 20.3389 16.1059 20.3389 15.0673H18.6491ZM14.6894 22.6543C15.6222 22.6239 16.3634 22.5417 17.0359 22.2634L16.3893 20.7032C16.0119 20.8587 15.5275 20.9364 14.6354 20.9646L14.6894 22.6543ZM18.3708 18.7217C18.1867 19.166 17.9169 19.5697 17.5767 19.9097C17.2365 20.2497 16.8326 20.5194 16.3882 20.7032L17.0359 22.2634C18.3466 21.7204 19.388 20.679 19.9311 19.3683L18.3708 18.7217ZM9.13012 5.66099C7.67129 5.66099 6.51775 5.66099 5.59627 5.74773C4.66127 5.83672 3.87722 6.0226 3.17992 6.44954L4.0631 7.89034C4.44949 7.65378 4.94515 7.50733 5.75623 7.4296C6.57858 7.35075 7.63863 7.35075 9.13012 7.35075V5.66099ZM2.31476 14.1661C2.31476 12.6746 2.31476 11.6157 2.39361 10.7922C2.47134 9.98114 2.61779 9.48547 2.85436 9.09908L1.41355 8.2159C0.985483 8.91321 0.800736 9.69726 0.711742 10.6323C0.623874 11.5537 0.625001 12.7073 0.625001 14.1661H2.31476ZM3.17992 6.44954C2.46002 6.89072 1.85474 7.496 1.41355 8.2159L2.85436 9.09908C3.15625 8.60643 3.57045 8.19223 4.0631 7.89034L3.17992 6.44954ZM9.93783 23.0542C9.7114 22.6712 9.51313 22.3355 9.3205 22.0697C9.12216 21.7792 8.86503 21.5335 8.56574 21.3487L7.70509 22.8042C7.75691 22.8346 7.82901 22.8909 7.95292 23.0632C8.0881 23.2491 8.24131 23.506 8.48238 23.9149L9.93783 23.0542ZM6.27443 22.6543C6.77685 22.6701 7.09678 22.6814 7.34123 22.7107C7.57104 22.7388 7.65778 22.776 7.70509 22.8042L8.56461 21.3498C8.23793 21.1572 7.89547 21.0761 7.54513 21.0344C7.20943 20.9927 6.80051 20.9803 6.3285 20.9646L6.27443 22.6543ZM12.4815 23.9149C12.7225 23.506 12.8758 23.2491 13.0109 23.0632C13.1348 22.8909 13.2069 22.8346 13.2588 22.8042L12.3992 21.3498C12.1 21.5347 11.8428 21.7803 11.6445 22.0708C11.4507 22.3355 11.2525 22.6724 11.026 23.0542L12.4815 23.9149ZM14.6354 20.9646C14.1633 20.9803 13.7544 20.9927 13.4187 21.0333C13.0695 21.0761 12.7248 21.1583 12.3992 21.3498L13.2588 22.8042C13.3061 22.776 13.3928 22.7388 13.6226 22.7107C13.866 22.6814 14.187 22.6701 14.6894 22.6543L14.6354 20.9646ZM11.8337 7.35075C13.8592 7.35075 15.0702 7.35525 15.9432 7.53549L16.2857 5.87953C15.2009 5.65648 13.777 5.66099 11.8337 5.66099V7.35075ZM20.3389 14.1661C20.3389 12.2229 20.3434 10.799 20.1192 9.71415L18.4643 10.0566C18.6446 10.9297 18.6491 12.1406 18.6491 14.1661H20.3389Z" fill="#19191D"/>
<path d="M11.462 23.978L12.1886 24.4083M12.1886 24.4083L12.4815 23.9149M12.1886 24.4083L10.7331 23.5476L11.026 23.0542M12.1886 24.4083C11.4259 25.697 9.53791 25.697 8.7764 24.4083L10.2296 23.5476M12.1886 24.4083L10.7343 23.5476C10.7084 23.5911 10.6713 23.6268 10.6269 23.651C10.5825 23.6751 10.5325 23.6869 10.4819 23.6851C10.4314 23.6869 10.3813 23.6751 10.3369 23.651C10.2925 23.6268 10.2554 23.5911 10.2296 23.5476M11.7538 23.4846L11.026 23.0542M11.026 23.0542L12.4815 23.9149M11.026 23.0542C11.2525 22.6724 11.4507 22.3355 11.6445 22.0708C11.8428 21.7803 12.1 21.5347 12.3992 21.3498M9.2101 23.4846L9.93783 23.0542M9.93783 23.0542C9.7114 22.6712 9.51313 22.3355 9.3205 22.0697C9.12216 21.7792 8.86503 21.5335 8.56574 21.3487L7.70509 22.8042M9.93783 23.0542L8.48238 23.9149M9.50299 23.978L8.77527 24.4083M8.77527 24.4083L8.48238 23.9149M8.77527 24.4083L10.2296 23.5476M0.625001 14.1661C0.625001 14.3902 0.714015 14.6051 0.87246 14.7635C1.03091 14.922 1.2458 15.011 1.46988 15.011C1.69396 15.011 1.90885 14.922 2.0673 14.7635C2.22575 14.6051 2.31476 14.3902 2.31476 14.1661M0.625001 14.1661H2.31476M0.625001 14.1661C0.625001 12.7073 0.623874 11.5537 0.711742 10.6323C0.800736 9.69726 0.985483 8.91321 1.41355 8.2159M2.31476 14.1661C2.31476 12.6746 2.31476 11.6157 2.39361 10.7922C2.47134 9.98114 2.61779 9.48547 2.85436 9.09908M2.59301 18.7217C2.50257 18.5218 2.33792 18.3649 2.13389 18.2843C1.92986 18.2036 1.70245 18.2054 1.49977 18.2894C1.29709 18.3734 1.13503 18.533 1.04788 18.7343C0.960726 18.9357 0.955318 19.163 1.0328 19.3683M2.59301 18.7217L1.0328 19.3683M2.59301 18.7217C2.77687 19.1661 3.04651 19.5689 3.38651 19.909C3.72651 20.2492 4.1302 20.5191 4.57453 20.7032M1.0328 19.3683C1.57587 20.679 2.61723 21.7204 3.92792 22.2634M6.30146 21.8094L6.3285 20.9646M6.3285 20.9646C5.43631 20.9364 4.95078 20.8587 4.57453 20.7032M6.3285 20.9646L6.27443 22.6543M6.3285 20.9646C6.80051 20.9803 7.20943 20.9927 7.54513 21.0344C7.89547 21.0761 8.23793 21.1572 8.56461 21.3498L7.70509 22.8042M4.25122 21.4828L3.92792 22.2634M3.92792 22.2634L4.57453 20.7032M3.92792 22.2634C4.60044 22.5428 5.34168 22.6239 6.27443 22.6543M19.1504 19.045L19.9311 19.3683M19.9311 19.3683L18.3708 18.7217M19.9311 19.3683C20.153 18.8343 20.2476 18.2621 20.2938 17.5907C20.3389 16.926 20.3389 16.1059 20.3389 15.0673M19.9311 19.3683C19.388 20.679 18.3466 21.7204 17.0359 22.2634M14.6624 21.8094L14.6354 20.9646M14.6354 20.9646C15.5275 20.9364 16.0119 20.8587 16.3893 20.7032L17.0359 22.2634M14.6354 20.9646L14.6894 22.6543M14.6354 20.9646C14.1633 20.9803 13.7544 20.9927 13.4187 21.0333C13.0695 21.0761 12.7248 21.1583 12.3992 21.3498M16.7126 21.4828L17.0359 22.2634M17.0359 22.2634C16.3634 22.5417 15.6222 22.6239 14.6894 22.6543M17.0359 22.2634L16.3882 20.7032C16.8326 20.5194 17.2365 20.2497 17.5767 19.9097C17.9169 19.5697 18.1867 19.166 18.3708 18.7217M3.62151 7.17051L3.17992 6.45067M2.13452 8.65749L1.41355 8.2159M1.41355 8.2159L2.85436 9.09908M1.41355 8.2159C1.85474 7.496 2.46002 6.89072 3.17992 6.44954M8.13429 22.0764L7.70509 22.8042M7.70509 22.8042C7.75691 22.8346 7.82901 22.8909 7.95292 23.0632C8.0881 23.2491 8.24131 23.506 8.48238 23.9149M7.70509 22.8042C7.65778 22.776 7.57104 22.7388 7.34123 22.7107C7.09678 22.6814 6.77685 22.6701 6.27443 22.6543M15.9432 7.53549C16.052 7.55798 16.1641 7.55883 16.2731 7.53799C16.3822 7.51716 16.4861 7.47504 16.5789 7.41406C16.6716 7.35307 16.7515 7.27441 16.8139 7.18256C16.8763 7.09071 16.92 6.98747 16.9424 6.87874C16.9649 6.77001 16.9658 6.65791 16.9449 6.54885C16.9241 6.43979 16.882 6.3359 16.821 6.24312C16.76 6.15033 16.6814 6.07047 16.5895 6.00808C16.4977 5.9457 16.3944 5.90201 16.2857 5.87953M15.9432 7.53549L16.2857 5.87953M15.9432 7.53549C15.0702 7.35525 13.8592 7.35075 11.8337 7.35075M16.2857 5.87953C15.2009 5.65648 13.777 5.66099 11.8337 5.66099M20.1192 9.71415C20.0967 9.6055 20.053 9.50233 19.9907 9.41055C19.9283 9.31877 19.8485 9.24017 19.7558 9.17923C19.663 9.1183 19.5592 9.07623 19.4502 9.05542C19.3412 9.03462 19.2292 9.03548 19.1205 9.05797C19.0119 9.08045 18.9087 9.12412 18.8169 9.18648C18.7251 9.24883 18.6465 9.32865 18.5856 9.42139C18.5247 9.51412 18.4826 9.61795 18.4618 9.72694C18.441 9.83593 18.4419 9.94796 18.4643 10.0566M20.1192 9.71415L18.4643 10.0566M20.1192 9.71415C20.3434 10.799 20.3389 12.2229 20.3389 14.1661M18.4643 10.0566C18.6446 10.9297 18.6491 12.1406 18.6491 14.1661M12.4815 23.9149C12.7225 23.506 12.8758 23.2491 13.0109 23.0632C13.1348 22.8909 13.2069 22.8346 13.2588 22.8042M8.48238 23.9149L9.9367 23.0542L10.2296 23.5476M9.13012 7.35075H11.8337M9.13012 7.35075V5.66099M9.13012 7.35075C7.63863 7.35075 6.57858 7.35075 5.75623 7.4296C4.94515 7.50733 4.44949 7.65378 4.0631 7.89034M11.8337 7.35075V5.66099M11.8337 5.66099H9.13012M9.13012 5.66099C7.67129 5.66099 6.51775 5.66099 5.59627 5.74773C4.66127 5.83672 3.87722 6.0226 3.17992 6.44954M18.6491 14.1661V15.0673M18.6491 14.1661H20.3389M18.6491 15.0673H20.3389M18.6491 15.0673C18.6491 16.1285 18.6491 16.8821 18.6085 17.4758C18.568 18.0616 18.4925 18.4277 18.3708 18.7217M20.3389 15.0673V14.1661M14.6894 22.6543C14.187 22.6701 13.866 22.6814 13.6226 22.7107C13.3928 22.7388 13.3061 22.776 13.2588 22.8042M3.17992 6.44954L4.0631 7.89034M4.0631 7.89034C3.57045 8.19223 3.15625 8.60643 2.85436 9.09908M13.2588 22.8042L12.3992 21.3498" stroke="#19191D" stroke-width="0.855049"/>
<path d="M7.82715 5.81852C7.88573 4.70103 8.0333 3.9474 8.41293 3.32895C8.76121 2.7615 9.23869 2.28441 9.80642 1.93658C10.8225 1.3125 12.2059 1.3125 14.9714 1.3125H17.5061C19.2274 1.3125 20.4125 1.3125 21.308 1.46233M20.1815 15.6586C21.0242 15.6304 21.593 15.556 22.0797 15.3544C22.5924 15.1421 23.0582 14.8309 23.4506 14.4385C23.843 14.0461 24.1542 13.5803 24.3665 13.0676C24.6876 12.2914 24.6876 11.3069 24.6876 9.33885V8.49397C24.6876 6.77267 24.6876 5.58759 24.5377 4.69202" stroke="#19191D" stroke-width="2.56515" stroke-linecap="round"/>
<path d="M6.55078 14.3914H6.55979M10.4823 14.3914H10.4924M14.4149 14.3914H14.4251" stroke="#19191D" stroke-width="3" stroke-linecap="round" stroke-linejoin="round"/>
</g>
<defs>
<filter id="filter0_i_95_128" x="0.197266" y="0.0299072" width="25.7725" height="26.7725" filterUnits="userSpaceOnUse" color-interpolation-filters="sRGB">
<feFlood flood-opacity="0" result="BackgroundImageFix"/>
<feBlend mode="normal" in="SourceGraphic" in2="BackgroundImageFix" result="shape"/>
<feColorMatrix in="SourceAlpha" type="matrix" values="0 0 0 0 0 0 0 0 0 0 0 0 0 0 0 0 0 0 127 0" result="hardAlpha"/>
<feOffset dy="1"/>
<feGaussianBlur stdDeviation="1"/>
<feComposite in2="hardAlpha" operator="arithmetic" k2="-1" k3="1"/>
<feColorMatrix type="matrix" values="0 0 0 0 0 0 0 0 0 0 0 0 0 0 0 0 0 0 0.34 0"/>
<feBlend mode="normal" in2="shape" result="effect1_innerShadow_95_128"/>
</filter>
</defs>
</svg>
