<svg width="22" height="22" viewBox="0 0 22 22" fill="none" xmlns="http://www.w3.org/2000/svg">
<g filter="url(#filter0_i_95_114)">
<path fill-rule="evenodd" clip-rule="evenodd" d="M20.2524 8.6463C20.1883 8.64321 20.1241 8.64211 20.0599 8.643H17.3814C15.1901 8.643 13.3135 10.382 13.3135 12.6502C13.3135 14.9183 15.1901 16.6574 17.3825 16.6574H20.0588C20.1259 16.6574 20.1908 16.6574 20.2513 16.653C20.7037 16.6241 21.13 16.4318 21.451 16.1118C21.772 15.7918 21.9657 15.3661 21.996 14.9139C22.0004 14.849 22.0004 14.7797 22.0004 14.7159V10.5844C22.0004 10.5206 22.0004 10.4513 21.996 10.3864C21.9657 9.93444 21.7722 9.50884 21.4514 9.18891C21.1307 8.86899 20.7046 8.67653 20.2524 8.6474V8.6463ZM17.1471 13.7183C17.7114 13.7183 18.1701 13.2409 18.1701 12.6502C18.1701 12.0595 17.7114 11.5821 17.1471 11.5821C16.5828 11.5821 16.1251 12.0595 16.1251 12.6502C16.1251 13.2409 16.5817 13.7183 17.1471 13.7183Z" fill="#19191D"/>
<path fill-rule="evenodd" clip-rule="evenodd" d="M20.0579 18.2601C20.0948 18.2588 20.1314 18.2662 20.1649 18.2817C20.1983 18.2971 20.2277 18.3203 20.2506 18.3491C20.2735 18.378 20.2893 18.4119 20.2967 18.448C20.3042 18.4842 20.303 18.5215 20.2933 18.5571C20.0799 19.3183 19.7422 19.9673 19.1999 20.5129C18.4068 21.3125 17.4002 21.6678 16.1572 21.8361C14.9494 22 13.4071 22 11.4579 22H9.21713C7.26898 22 5.72564 22 4.51781 21.8361C3.27478 21.6678 2.26826 21.3125 1.47514 20.5129C0.682017 19.7143 0.330008 18.7001 0.162804 17.4472C0 16.2296 0 14.6742 0 12.7108V12.5898C0 10.6263 0 9.06987 0.162804 7.85331C0.330008 6.60044 0.682017 5.58847 1.47404 4.78659C2.26716 3.98802 3.27368 3.63163 4.51671 3.46443C5.72564 3.30054 7.26898 3.30054 9.21713 3.30054H11.4579C13.406 3.30054 14.9494 3.30054 16.1572 3.46443C17.4002 3.63273 18.4068 3.98802 19.1999 4.78659C19.7422 5.33328 20.0799 5.98226 20.2933 6.74454C20.3028 6.78005 20.3038 6.81729 20.2963 6.85326C20.2888 6.88924 20.2729 6.92296 20.2501 6.95172C20.2272 6.98048 20.1979 7.00348 20.1645 7.01889C20.1311 7.03429 20.0946 7.04167 20.0579 7.04043H17.3815C14.3741 7.04043 11.7241 9.43506 11.7241 12.6503C11.7241 15.8655 14.3752 18.2601 17.3826 18.2601H20.0579ZM3.9755 7.57502C3.87077 7.57545 3.76715 7.59651 3.67055 7.63698C3.57396 7.67746 3.48628 7.73656 3.41253 7.81092C3.33878 7.88528 3.2804 7.97344 3.24072 8.07036C3.20104 8.16728 3.18085 8.27107 3.18128 8.37579C3.18128 8.81908 3.53659 9.17767 3.9755 9.17767H8.2172C8.65722 9.17767 9.01252 8.81908 9.01252 8.37579C9.01311 8.16419 8.92968 7.961 8.78056 7.81086C8.63144 7.66071 8.42882 7.57589 8.2172 7.57502H3.9755Z" fill="#19191D"/>
<path d="M6.35449 2.22698L8.50835 0.639729C9.0704 0.224231 9.75093 0 10.4499 0C11.1489 0 11.8294 0.224231 12.3914 0.639729L14.5574 2.23578C13.651 2.20058 12.6389 2.20058 11.5312 2.20058H9.14416C8.12994 2.20058 7.19821 2.20058 6.35449 2.22698Z" fill="#19191D"/>
</g>
<defs>
<filter id="filter0_i_95_114" x="0" y="0" width="22" height="23" filterUnits="userSpaceOnUse" color-interpolation-filters="sRGB">
<feFlood flood-opacity="0" result="BackgroundImageFix"/>
<feBlend mode="normal" in="SourceGraphic" in2="BackgroundImageFix" result="shape"/>
<feColorMatrix in="SourceAlpha" type="matrix" values="0 0 0 0 0 0 0 0 0 0 0 0 0 0 0 0 0 0 127 0" result="hardAlpha"/>
<feOffset dy="1"/>
<feGaussianBlur stdDeviation="1.5"/>
<feComposite in2="hardAlpha" operator="arithmetic" k2="-1" k3="1"/>
<feColorMatrix type="matrix" values="0 0 0 0 0 0 0 0 0 0 0 0 0 0 0 0 0 0 0.34 0"/>
<feBlend mode="normal" in2="shape" result="effect1_innerShadow_95_114"/>
</filter>
</defs>
</svg>
