<svg width="22" height="22" viewBox="0 0 22 22" fill="none" xmlns="http://www.w3.org/2000/svg">
<path d="M10.0143 0.0266933C7.88675 0.23329 5.92287 1.01663 4.20017 2.34228C3.36035 2.98789 2.27074 4.20163 1.64195 5.19157C1.37063 5.61767 0.840895 6.70229 0.651397 7.21878C0.440366 7.79552 0.212108 8.68216 0.100132 9.36651C-0.0333774 10.2058 -0.0333774 11.7983 0.100132 12.6376C0.293936 13.8255 0.599716 14.781 1.12083 15.8441C1.68933 17.0019 2.27935 17.824 3.22684 18.7752C4.17863 19.7221 5.00122 20.3117 6.15974 20.8799C7.22351 21.4007 8.17961 21.7062 9.36828 21.8999C10.2081 22.0334 11.8016 22.0334 12.6414 21.8999C13.8301 21.7062 14.7862 21.4007 15.8499 20.8799C17.0085 20.3117 17.8311 19.7221 18.7829 18.7752C19.7303 17.824 20.3204 17.0019 20.8889 15.8441C21.2679 15.0737 21.4573 14.5701 21.6641 13.7954C21.9354 12.7624 22 12.1986 22 11.002C22 9.80552 21.9354 9.24169 21.6641 8.20871C21.4573 7.43398 21.2679 6.93041 20.8889 6.15998C20.3204 5.00219 19.7303 4.18011 18.7829 3.22892C17.8311 2.28202 17.0085 1.69237 15.8499 1.12423C14.7905 0.603437 13.8085 0.293547 12.6629 0.112776C12.0299 0.0137825 10.6172 -0.0335636 10.0143 0.0266933ZM11.9351 2.71673C14.1832 3.07827 15.7035 4.89889 16.1471 7.75248C16.2332 8.2948 16.3022 9.21156 16.3022 9.79691C16.3022 11.2689 16.7802 13.0852 17.4305 14.1053C17.5124 14.2344 17.5899 14.385 17.6071 14.441C17.6416 14.5744 17.5425 14.8068 17.4133 14.8929C17.1937 15.035 15.402 15.4438 14.2823 15.6074C13.9377 15.6547 13.6535 15.6978 13.6492 15.7064C13.6449 15.7107 13.6664 15.8527 13.6966 16.0249C13.8085 16.6059 14.0928 17.0406 14.5751 17.3678C14.9369 17.6131 15.1652 17.7207 16.1084 18.0693C16.5821 18.2501 17.1118 18.4567 17.2884 18.5385L17.6071 18.6848L17.2281 18.9775C15.4494 20.372 13.2745 21.1209 11.0048 21.1209C8.73518 21.1209 6.56027 20.372 4.78158 18.9775L4.40258 18.6848L4.72128 18.5385C4.89786 18.4567 5.42759 18.2501 5.90134 18.0693C6.84452 17.7207 7.07277 17.6131 7.43454 17.3678C7.9169 17.0406 8.20115 16.6059 8.31312 16.0249C8.34327 15.8527 8.3648 15.7107 8.3605 15.7064C8.35619 15.6978 8.07194 15.6547 7.7274 15.6074C6.60764 15.4438 4.81603 15.035 4.59639 14.8929C4.46719 14.8068 4.36813 14.5744 4.40258 14.441C4.41981 14.385 4.49733 14.2344 4.57916 14.1053C5.22948 13.0852 5.70753 11.2689 5.70753 9.79691C5.70753 7.70514 6.14682 5.94047 6.96511 4.72242C7.2192 4.34797 7.70156 3.83148 8.0461 3.56894C9.04958 2.7942 10.4708 2.48431 11.9351 2.71673Z" fill="#19191D"/>
</svg>
