<svg width="22" height="22" viewBox="0 0 22 22" fill="none" xmlns="http://www.w3.org/2000/svg">
<g filter="url(#filter0_i_95_120)">
<path d="M13.1164 22H8.88363C8.60145 22 8.35689 21.9083 8.14995 21.725C7.94302 21.5417 7.82074 21.3125 7.78312 21.0375L7.4445 18.48C7.19994 18.3883 6.9693 18.2783 6.75258 18.15C6.53587 18.0217 6.32442 17.8842 6.11824 17.7375L3.66325 18.7275C3.39988 18.8192 3.13651 18.8283 2.87313 18.755C2.60976 18.6817 2.40283 18.5258 2.25233 18.2875L0.164179 14.74C0.0136816 14.5017 -0.0333489 14.245 0.0230877 13.97C0.0795243 13.695 0.220616 13.475 0.446362 13.31L2.56273 11.7425C2.54392 11.6142 2.53451 11.4902 2.53451 11.3707V10.6293C2.53451 10.5098 2.54392 10.3858 2.56273 10.2575L0.446362 8.69C0.220616 8.525 0.0795243 8.305 0.0230877 8.03C-0.0333489 7.755 0.0136816 7.49833 0.164179 7.26L2.25233 3.7125C2.38402 3.45583 2.58606 3.29523 2.85846 3.2307C3.13086 3.16617 3.39912 3.1801 3.66325 3.2725L6.11824 4.2625C6.32517 4.11583 6.54151 3.97833 6.76726 3.85C6.993 3.72167 7.21875 3.61167 7.4445 3.52L7.78312 0.9625C7.82074 0.6875 7.94302 0.458333 8.14995 0.275C8.35689 0.0916667 8.60145 0 8.88363 0H13.1164C13.3986 0 13.6431 0.0916667 13.85 0.275C14.057 0.458333 14.1793 0.6875 14.2169 0.9625L14.5555 3.52C14.8001 3.61167 15.0307 3.72167 15.2474 3.85C15.4641 3.97833 15.6756 4.11583 15.8818 4.2625L18.3368 3.2725C18.6001 3.18083 18.8635 3.17167 19.1269 3.245C19.3902 3.31833 19.5972 3.47417 19.7477 3.7125L21.8358 7.26C21.9863 7.49833 22.0333 7.755 21.9769 8.03C21.9205 8.305 21.7794 8.525 21.5536 8.69L19.4373 10.2575C19.4561 10.3858 19.4655 10.5098 19.4655 10.6293V11.3707C19.4655 11.4902 19.4467 11.6142 19.409 11.7425L21.5254 13.31C21.7512 13.475 21.8923 13.695 21.9487 13.97C22.0051 14.245 21.9581 14.5017 21.8076 14.74L19.7194 18.26C19.569 18.4983 19.3571 18.6589 19.084 18.7418C18.8108 18.8247 18.5429 18.8199 18.2803 18.7275L15.8818 17.7375C15.6748 17.8842 15.4585 18.0217 15.2327 18.15C15.007 18.2783 14.7812 18.3883 14.5555 18.48L14.2169 21.0375C14.1793 21.3125 14.057 21.5417 13.85 21.725C13.6431 21.9083 13.3986 22 13.1164 22ZM11.0564 14.85C12.1475 14.85 13.0787 14.4742 13.85 13.7225C14.6213 12.9708 15.007 12.0633 15.007 11C15.007 9.93667 14.6213 9.02917 13.85 8.2775C13.0787 7.52583 12.1475 7.15 11.0564 7.15C9.94652 7.15 9.01042 7.52583 8.24815 8.2775C7.48588 9.02917 7.10512 9.93667 7.10588 11C7.10588 12.0633 7.48664 12.9708 8.24815 13.7225C9.00967 14.4742 9.94577 14.85 11.0564 14.85Z" fill="#19191D"/>
</g>
<defs>
<filter id="filter0_i_95_120" x="0" y="0" width="22" height="23" filterUnits="userSpaceOnUse" color-interpolation-filters="sRGB">
<feFlood flood-opacity="0" result="BackgroundImageFix"/>
<feBlend mode="normal" in="SourceGraphic" in2="BackgroundImageFix" result="shape"/>
<feColorMatrix in="SourceAlpha" type="matrix" values="0 0 0 0 0 0 0 0 0 0 0 0 0 0 0 0 0 0 127 0" result="hardAlpha"/>
<feOffset dy="1"/>
<feGaussianBlur stdDeviation="1.5"/>
<feComposite in2="hardAlpha" operator="arithmetic" k2="-1" k3="1"/>
<feColorMatrix type="matrix" values="0 0 0 0 0 0 0 0 0 0 0 0 0 0 0 0 0 0 0.34 0"/>
<feBlend mode="normal" in2="shape" result="effect1_innerShadow_95_120"/>
</filter>
</defs>
</svg>
