<svg width="22" height="22" viewBox="0 0 22 22" fill="none" xmlns="http://www.w3.org/2000/svg">
<g filter="url(#filter0_i_95_141)">
<path d="M10.3451 0.0453739C9.80856 0.11246 9.40102 0.236313 8.85934 0.499498C8.24544 0.798808 7.94623 1.00523 7.48194 1.46451C6.29026 2.64111 5.76406 4.35956 6.09938 5.9748C6.58431 8.33315 8.61688 10 11.0002 10C13.3836 10 15.4162 8.33315 15.9011 5.9748C16.2364 4.35956 15.7051 2.64111 14.5185 1.46451C14.0543 1.00523 13.755 0.798808 13.1411 0.499498C12.228 0.0608549 11.3407 -0.0836391 10.3451 0.0453739Z" fill="#19191D"/>
</g>
<g filter="url(#filter1_i_95_141)">
<path d="M3.60064 1.11532C2.67788 1.39208 1.84131 2.15317 1.38499 3.13914C0.654894 4.72475 0.989523 6.80623 2.16579 7.98824C2.85026 8.66861 3.88964 9.08375 4.69072 8.98573L5 8.95114L4.80733 8.47834C4.28511 7.20985 4.05695 5.77414 4.15836 4.35574C4.22427 3.32941 4.40172 2.55102 4.78198 1.56506L5 1L4.48792 1.00577C4.14822 1.00577 3.84401 1.04613 3.60064 1.11532Z" fill="#19191D"/>
</g>
<g filter="url(#filter2_i_95_141)">
<path d="M17.2181 1.56506C17.5986 2.55102 17.7762 3.32941 17.8421 4.35574C17.9436 5.77414 17.7153 7.20985 17.1928 8.47834L17 8.95114L17.3095 8.98573C18.111 9.08375 19.151 8.66861 19.8358 7.98824C21.2207 6.5929 21.3983 4.08474 20.2163 2.44723C19.5416 1.51316 18.5777 1 17.4921 1H17L17.2181 1.56506Z" fill="#19191D"/>
</g>
<g filter="url(#filter3_i_95_141)">
<path d="M4.8966 12.0371C2.37667 12.421 0.360737 15.1653 0.0400195 18.6397C-0.051614 19.6467 0.00794781 20.1251 0.282848 20.5153C0.553167 20.9056 0.731853 20.9874 1.31831 20.9937L1.83604 21L2.02847 20.2447C2.86233 16.9969 4.56672 14.2212 6.74759 12.5658C7.11413 12.2951 7.10496 12.2762 6.56433 12.1315C6.06951 12.0056 5.36851 11.9615 4.8966 12.0371Z" fill="#19191D"/>
</g>
<g filter="url(#filter4_i_95_141)">
<path d="M16.0586 12.0276C15.7566 12.0653 15.0704 12.2413 15.0109 12.2915C14.9698 12.3292 15.043 12.4172 15.2626 12.5868C17.4401 14.233 19.142 17.0039 19.9746 20.246L20.1667 21L20.6837 20.9937C21.2692 20.9874 21.4477 20.9058 21.7176 20.5162C21.9921 20.1266 22.0515 19.6491 21.96 18.6438C21.7633 16.5138 20.9078 14.566 19.6452 13.3659C18.6204 12.3921 17.2206 11.8706 16.0586 12.0276Z" fill="#19191D"/>
</g>
<g filter="url(#filter5_i_95_141)">
<path d="M10.1681 12.0104C9.61051 12.1004 9.10238 12.2153 8.6617 12.3653C8.00518 12.5801 6.93496 13.1648 6.37287 13.6146C4.74506 14.9139 3.60289 16.8478 3.1802 19.0016C3.06778 19.5763 2.97785 20.5458 3.00483 20.9256C3.03181 21.3104 3.21168 21.6452 3.50846 21.8501L3.7288 22H11H18.2712L18.4915 21.8501C18.7883 21.6452 18.9682 21.3104 18.9952 20.9256C19.0222 20.5458 18.9322 19.5763 18.8198 19.0016C18.5545 17.6374 17.9744 16.3081 17.174 15.2137C16.8188 14.729 16.1218 14.0094 15.6271 13.6146C15.101 13.1948 14.0038 12.5851 13.4013 12.3802C12.5739 12.1004 12.1377 12.0254 11.1799 12.0054C10.6987 11.9955 10.2446 12.0005 10.1681 12.0104Z" fill="#19191D"/>
</g>
<defs>
<filter id="filter0_i_95_141" x="6" y="0" width="10" height="11" filterUnits="userSpaceOnUse" color-interpolation-filters="sRGB">
<feFlood flood-opacity="0" result="BackgroundImageFix"/>
<feBlend mode="normal" in="SourceGraphic" in2="BackgroundImageFix" result="shape"/>
<feColorMatrix in="SourceAlpha" type="matrix" values="0 0 0 0 0 0 0 0 0 0 0 0 0 0 0 0 0 0 127 0" result="hardAlpha"/>
<feOffset dy="1"/>
<feGaussianBlur stdDeviation="1.5"/>
<feComposite in2="hardAlpha" operator="arithmetic" k2="-1" k3="1"/>
<feColorMatrix type="matrix" values="0 0 0 0 0 0 0 0 0 0 0 0 0 0 0 0 0 0 0.34 0"/>
<feBlend mode="normal" in2="shape" result="effect1_innerShadow_95_141"/>
</filter>
<filter id="filter1_i_95_141" x="1" y="1" width="4" height="9" filterUnits="userSpaceOnUse" color-interpolation-filters="sRGB">
<feFlood flood-opacity="0" result="BackgroundImageFix"/>
<feBlend mode="normal" in="SourceGraphic" in2="BackgroundImageFix" result="shape"/>
<feColorMatrix in="SourceAlpha" type="matrix" values="0 0 0 0 0 0 0 0 0 0 0 0 0 0 0 0 0 0 127 0" result="hardAlpha"/>
<feOffset dy="1"/>
<feGaussianBlur stdDeviation="1.5"/>
<feComposite in2="hardAlpha" operator="arithmetic" k2="-1" k3="1"/>
<feColorMatrix type="matrix" values="0 0 0 0 0 0 0 0 0 0 0 0 0 0 0 0 0 0 0.34 0"/>
<feBlend mode="normal" in2="shape" result="effect1_innerShadow_95_141"/>
</filter>
<filter id="filter2_i_95_141" x="17" y="1" width="4" height="9" filterUnits="userSpaceOnUse" color-interpolation-filters="sRGB">
<feFlood flood-opacity="0" result="BackgroundImageFix"/>
<feBlend mode="normal" in="SourceGraphic" in2="BackgroundImageFix" result="shape"/>
<feColorMatrix in="SourceAlpha" type="matrix" values="0 0 0 0 0 0 0 0 0 0 0 0 0 0 0 0 0 0 127 0" result="hardAlpha"/>
<feOffset dy="1"/>
<feGaussianBlur stdDeviation="1.5"/>
<feComposite in2="hardAlpha" operator="arithmetic" k2="-1" k3="1"/>
<feColorMatrix type="matrix" values="0 0 0 0 0 0 0 0 0 0 0 0 0 0 0 0 0 0 0.34 0"/>
<feBlend mode="normal" in2="shape" result="effect1_innerShadow_95_141"/>
</filter>
<filter id="filter3_i_95_141" x="0" y="12" width="7" height="10" filterUnits="userSpaceOnUse" color-interpolation-filters="sRGB">
<feFlood flood-opacity="0" result="BackgroundImageFix"/>
<feBlend mode="normal" in="SourceGraphic" in2="BackgroundImageFix" result="shape"/>
<feColorMatrix in="SourceAlpha" type="matrix" values="0 0 0 0 0 0 0 0 0 0 0 0 0 0 0 0 0 0 127 0" result="hardAlpha"/>
<feOffset dy="1"/>
<feGaussianBlur stdDeviation="1.5"/>
<feComposite in2="hardAlpha" operator="arithmetic" k2="-1" k3="1"/>
<feColorMatrix type="matrix" values="0 0 0 0 0 0 0 0 0 0 0 0 0 0 0 0 0 0 0.34 0"/>
<feBlend mode="normal" in2="shape" result="effect1_innerShadow_95_141"/>
</filter>
<filter id="filter4_i_95_141" x="15" y="12" width="7" height="10" filterUnits="userSpaceOnUse" color-interpolation-filters="sRGB">
<feFlood flood-opacity="0" result="BackgroundImageFix"/>
<feBlend mode="normal" in="SourceGraphic" in2="BackgroundImageFix" result="shape"/>
<feColorMatrix in="SourceAlpha" type="matrix" values="0 0 0 0 0 0 0 0 0 0 0 0 0 0 0 0 0 0 127 0" result="hardAlpha"/>
<feOffset dy="1"/>
<feGaussianBlur stdDeviation="1.5"/>
<feComposite in2="hardAlpha" operator="arithmetic" k2="-1" k3="1"/>
<feColorMatrix type="matrix" values="0 0 0 0 0 0 0 0 0 0 0 0 0 0 0 0 0 0 0.34 0"/>
<feBlend mode="normal" in2="shape" result="effect1_innerShadow_95_141"/>
</filter>
<filter id="filter5_i_95_141" x="3" y="12" width="16" height="11" filterUnits="userSpaceOnUse" color-interpolation-filters="sRGB">
<feFlood flood-opacity="0" result="BackgroundImageFix"/>
<feBlend mode="normal" in="SourceGraphic" in2="BackgroundImageFix" result="shape"/>
<feColorMatrix in="SourceAlpha" type="matrix" values="0 0 0 0 0 0 0 0 0 0 0 0 0 0 0 0 0 0 127 0" result="hardAlpha"/>
<feOffset dy="1"/>
<feGaussianBlur stdDeviation="1.5"/>
<feComposite in2="hardAlpha" operator="arithmetic" k2="-1" k3="1"/>
<feColorMatrix type="matrix" values="0 0 0 0 0 0 0 0 0 0 0 0 0 0 0 0 0 0 0.34 0"/>
<feBlend mode="normal" in2="shape" result="effect1_innerShadow_95_141"/>
</filter>
</defs>
</svg>
