<svg width="46" height="46" viewBox="0 0 46 46" fill="none" xmlns="http://www.w3.org/2000/svg">
<path d="M40.1111 1H5.88889C3.18883 1 1 3.18883 1 5.88889V40.1111C1 42.8112 3.18883 45 5.88889 45H40.1111C42.8112 45 45 42.8112 45 40.1111V5.88889C45 3.18883 42.8112 1 40.1111 1Z" stroke="#8399B8" stroke-width="2" stroke-linecap="round" stroke-linejoin="round"/>
<path d="M14.444 18.1112C16.4691 18.1112 18.1107 16.4695 18.1107 14.4445C18.1107 12.4195 16.4691 10.7778 14.444 10.7778C12.419 10.7778 10.7773 12.4195 10.7773 14.4445C10.7773 16.4695 12.419 18.1112 14.444 18.1112Z" stroke="#8399B8" stroke-width="2" stroke-linecap="round" stroke-linejoin="round"/>
<path d="M44.9998 30.3336L32.7776 18.1113L5.88867 45.0002" stroke="#8399B8" stroke-width="2" stroke-linecap="round" stroke-linejoin="round"/>
</svg>
