<svg width="34" height="31" viewBox="0 0 34 31" fill="none" xmlns="http://www.w3.org/2000/svg">
<path d="M17 31C16.8865 30.9961 16.775 30.9674 16.6731 30.9158C13.7199 29.1221 10.9441 27.0349 8.38558 24.684C2.82789 19.5133 4.52066e-06 14.3931 4.52066e-06 9.4413C-0.0019846 7.37834 0.652497 5.37159 1.86317 3.72852C3.07385 2.08546 4.77395 0.896687 6.703 0.344349C8.63204 -0.207988 10.6836 -0.0934287 12.5435 0.670476C14.4033 1.43438 15.9687 2.8055 17 4.57375C18.0313 2.8055 19.5967 1.43438 21.4565 0.670476C23.3164 -0.0934287 25.368 -0.207988 27.297 0.344349C29.226 0.896687 30.9261 2.08546 32.1368 3.72852C33.3475 5.37159 34.002 7.37834 34 9.4413C34 14.3931 31.1721 19.5133 25.6144 24.684C23.0559 27.0349 20.2801 29.1221 17.3269 30.9158C17.225 30.9674 17.1135 30.9961 17 31ZM9.15385 1.35679C7.07292 1.35679 5.07722 2.20855 3.60578 3.72469C2.13434 5.24083 1.3077 7.29716 1.3077 9.4413C1.3077 19.4964 14.7442 28.1536 17 29.5515C19.2558 28.1536 32.6923 19.4964 32.6923 9.4413C32.6931 7.57236 32.0654 5.76087 30.916 4.31505C29.7666 2.86922 28.1666 1.87837 26.3881 1.51108C24.6096 1.14378 22.7626 1.42274 21.1612 2.30048C19.5599 3.17822 18.3031 4.60052 17.6048 6.3254C17.5555 6.44896 17.4717 6.55465 17.3641 6.62903C17.2564 6.70341 17.1296 6.74312 17 6.74312C16.8704 6.74312 16.7436 6.70341 16.6359 6.62903C16.5283 6.55465 16.4445 6.44896 16.3952 6.3254C15.7985 4.8535 14.7926 3.59637 13.5041 2.71225C12.2155 1.82812 10.7019 1.35651 9.15385 1.35679Z" fill="#8399B8"/>
</svg>
