<svg width="16" height="18" viewBox="0 0 16 18" fill="none" xmlns="http://www.w3.org/2000/svg">
<path d="M15 7.72C15 12.52 8 17 8 17C8 17 1 12.52 1 7.72C1 5.93775 1.7375 4.22849 3.05025 2.96824C4.36301 1.708 6.14348 1 8 1C9.85652 1 11.637 1.708 12.9497 2.96824C14.2625 4.22849 15 5.93775 15 7.72Z" fill="#1E1E1E" stroke="#7A8EA9" stroke-width="2" stroke-linecap="round" stroke-linejoin="round"/>
<path d="M7.99967 9.32207C8.92015 9.32207 9.66634 8.60573 9.66634 7.72207C9.66634 6.83841 8.92015 6.12207 7.99967 6.12207C7.0792 6.12207 6.33301 6.83841 6.33301 7.72207C6.33301 8.60573 7.0792 9.32207 7.99967 9.32207Z" fill="#1E1E1E" stroke="#7A8EA9" stroke-width="2" stroke-linecap="round" stroke-linejoin="round"/>
</svg>
